<?xml version="1.0" encoding="UTF-8"?>
<svg id="Layer_1" xmlns="http://www.w3.org/2000/svg" version="1.1" viewBox="0 0 1355.11 441.69">
  <!-- Generator: Adobe Illustrator 30.0.0, SVG Export Plug-In . SVG Version: 2.1.1 Build 123)  -->
  <defs>
    <style>
      .st0 {
        fill: #14123b;
      }

      .st1 {
        fill: #14123b;
      }

      .st2 {
        fill: #6400af;
      }
    </style>
  </defs>
  <g>
    <path class="st0" d="M268.06,230.22h-23.09v-125.14h23.09v125.14Z"/>
    <path class="st0" d="M416.66,105.08v125.14h-16.83l-73.94-85.93v85.93h-23.09v-125.14h16.83l73.94,85.75v-85.75h23.1Z"/>
    <path class="st0" d="M595.5,105.08h23.63l-50.13,125.14h-25.78l-50.13-125.14h23.81l39.21,97.93,39.39-97.93Z"/>
    <path class="st0" d="M664.96,230.22h-23.09v-125.14h23.09v125.14Z"/>
    <path class="st0" d="M789.93,105.08h23.63l-50.13,125.14h-25.78l-50.13-125.14h23.81l39.21,97.93,39.39-97.93Z"/>
    <path class="st0" d="M838.62,121.01c12.89-12.89,28.4-19.33,46.55-19.33s33.69,6.44,46.64,19.33c12.95,12.89,19.42,28.41,19.42,46.55s-6.48,33.69-19.42,46.64c-12.95,12.95-28.5,19.42-46.64,19.42s-33.66-6.47-46.55-19.42c-12.89-12.95-19.33-28.49-19.33-46.64s6.44-33.66,19.33-46.55ZM854.91,197.91c8.35,8.41,18.44,12.62,30.26,12.62s21.93-4.21,30.34-12.62c8.42-8.41,12.62-18.53,12.62-30.35s-4.21-21.93-12.62-30.35c-8.41-8.41-18.53-12.62-30.34-12.62s-21.9,4.21-30.26,12.62c-8.36,8.41-12.53,18.53-12.53,30.35s4.18,21.93,12.53,30.35Z"/>
  </g>
  <g>
    <path class="st2" d="M263.67,344.47c-2.96,0-5.71-.39-8.23-1.17-2.52-.78-4.81-1.96-6.87-3.55-2.05-1.59-3.89-3.55-5.5-5.89l5.77-6.63c2.55,3.64,4.99,6.16,7.33,7.57,2.34,1.4,5.12,2.11,8.35,2.11,1.98,0,3.77-.31,5.38-.94,1.61-.62,2.89-1.48,3.82-2.57.94-1.09,1.4-2.34,1.4-3.74,0-.94-.16-1.82-.47-2.65-.31-.83-.79-1.59-1.44-2.26-.65-.68-1.48-1.3-2.5-1.87-1.01-.57-2.2-1.08-3.55-1.52-1.35-.44-2.91-.82-4.68-1.13-2.81-.57-5.25-1.33-7.33-2.26-2.08-.94-3.82-2.11-5.23-3.51s-2.44-3-3.12-4.8c-.68-1.79-1.01-3.81-1.01-6.04s.48-4.21,1.44-6.08c.96-1.87,2.29-3.5,3.98-4.88,1.69-1.38,3.68-2.44,5.97-3.2,2.29-.75,4.76-1.13,7.41-1.13,2.81,0,5.38.36,7.72,1.09,2.34.73,4.42,1.81,6.24,3.24,1.82,1.43,3.33,3.19,4.52,5.26l-5.93,5.85c-1.04-1.72-2.21-3.16-3.51-4.33-1.3-1.17-2.73-2.05-4.29-2.65-1.56-.6-3.22-.9-4.99-.9-2.03,0-3.8.31-5.3.94-1.51.62-2.69,1.5-3.55,2.61-.86,1.12-1.29,2.43-1.29,3.94,0,1.09.21,2.09.62,3,.42.91,1.05,1.72,1.91,2.42.86.7,2.01,1.33,3.47,1.87,1.46.55,3.2,1.03,5.23,1.44,2.86.62,5.41,1.42,7.64,2.38,2.24.96,4.13,2.09,5.69,3.39,1.56,1.3,2.74,2.76,3.55,4.37.81,1.61,1.21,3.35,1.21,5.23,0,3.48-.81,6.5-2.42,9.05-1.61,2.55-3.9,4.51-6.86,5.89-2.96,1.38-6.5,2.07-10.61,2.07Z"/>
    <path class="st2" d="M290.82,310.54v-7.8h26.05v7.8h-26.05ZM299.32,343.69v-51.4h8.04v51.4h-8.04Z"/>
    <path class="st2" d="M324.98,343.69v-40.95h8.11v12.87l-.78-3.12c.57-1.98,1.55-3.77,2.92-5.38,1.38-1.61,2.96-2.89,4.76-3.82s3.65-1.4,5.58-1.4c.88,0,1.73.08,2.54.23.81.16,1.44.34,1.91.55l-2.11,8.74c-.62-.26-1.31-.48-2.07-.66-.75-.18-1.5-.27-2.22-.27-1.4,0-2.74.27-4.02.82-1.28.55-2.39,1.3-3.35,2.26-.96.96-1.73,2.08-2.3,3.35-.57,1.27-.86,2.67-.86,4.17v22.62h-8.11Z"/>
    <path class="st2" d="M371.23,344.47c-3.38,0-6.46-.94-9.24-2.81-2.78-1.87-5.01-4.42-6.67-7.64-1.67-3.22-2.5-6.86-2.5-10.92s.84-7.76,2.54-10.96c1.69-3.2,3.98-5.71,6.86-7.53,2.89-1.82,6.12-2.73,9.71-2.73,2.13,0,4.08.31,5.85.94s3.31,1.5,4.64,2.61c1.33,1.12,2.42,2.41,3.28,3.86.86,1.46,1.39,3.02,1.6,4.68l-1.79-.62v-10.61h8.11v40.95h-8.11v-9.75l1.87-.55c-.31,1.4-.95,2.77-1.91,4.09-.96,1.33-2.18,2.51-3.67,3.55-1.48,1.04-3.12,1.87-4.91,2.5-1.79.62-3.68.94-5.66.94ZM373.34,337.06c2.44,0,4.6-.6,6.47-1.79,1.87-1.2,3.34-2.85,4.41-4.95,1.06-2.11,1.6-4.51,1.6-7.21s-.53-5.02-1.6-7.1c-1.07-2.08-2.54-3.72-4.41-4.91-1.87-1.2-4.03-1.79-6.47-1.79s-4.51.6-6.36,1.79c-1.85,1.2-3.3,2.83-4.37,4.91-1.07,2.08-1.6,4.45-1.6,7.1s.53,5.11,1.6,7.21c1.07,2.11,2.52,3.76,4.37,4.95,1.85,1.2,3.96,1.79,6.36,1.79Z"/>
    <path class="st2" d="M402.2,310.54v-7.8h26.05v7.8h-26.05ZM410.7,343.69v-51.4h8.03v51.4h-8.03Z"/>
    <path class="st2" d="M455.08,344.47c-4.21,0-7.94-.9-11.19-2.69-3.25-1.79-5.8-4.25-7.64-7.37-1.85-3.12-2.77-6.71-2.77-10.76,0-3.22.52-6.16,1.56-8.81,1.04-2.65,2.48-4.95,4.33-6.9,1.85-1.95,4.06-3.46,6.63-4.52,2.57-1.06,5.37-1.6,8.38-1.6,2.65,0,5.12.51,7.41,1.52,2.29,1.01,4.28,2.41,5.97,4.17,1.69,1.77,2.99,3.86,3.9,6.28.91,2.42,1.34,5.06,1.29,7.92l-.08,3.43h-33.46l-1.79-6.4h28.31l-1.17,1.33v-1.87c-.16-1.72-.73-3.25-1.71-4.6-.99-1.35-2.24-2.42-3.74-3.2-1.51-.78-3.15-1.17-4.91-1.17-2.81,0-5.18.53-7.1,1.6-1.92,1.07-3.38,2.63-4.37,4.68-.99,2.05-1.48,4.59-1.48,7.6,0,2.86.6,5.34,1.79,7.45,1.2,2.11,2.89,3.73,5.07,4.88,2.18,1.14,4.71,1.72,7.57,1.72,2.03,0,3.91-.34,5.66-1.01,1.74-.68,3.63-1.9,5.65-3.67l4.06,5.69c-1.25,1.25-2.77,2.34-4.56,3.28-1.79.94-3.69,1.68-5.69,2.22-2,.55-3.97.82-5.89.82Z"/>
    <path class="st2" d="M500.4,361.63c-2.91,0-5.81-.46-8.7-1.36-2.89-.91-5.21-2.09-6.98-3.55l2.96-6.24c1.04.78,2.26,1.47,3.67,2.07,1.4.6,2.89,1.06,4.45,1.4,1.56.34,3.09.51,4.6.51,2.86,0,5.25-.47,7.18-1.4,1.92-.94,3.38-2.31,4.37-4.13.99-1.82,1.48-4.08,1.48-6.79v-7.88l.86.55c-.26,1.61-1.11,3.16-2.54,4.64s-3.21,2.69-5.34,3.63c-2.13.94-4.32,1.4-6.55,1.4-3.9,0-7.37-.92-10.41-2.77-3.04-1.85-5.45-4.37-7.21-7.57-1.77-3.2-2.65-6.85-2.65-10.96s.87-7.76,2.61-10.96c1.74-3.2,4.13-5.72,7.18-7.57,3.04-1.85,6.46-2.77,10.26-2.77,1.56,0,3.07.2,4.52.58,1.46.39,2.81.94,4.06,1.64s2.37,1.47,3.35,2.3c.99.83,1.79,1.72,2.42,2.65s1.01,1.82,1.17,2.65l-1.72.62v-9.59h8.03v38.45c0,3.28-.48,6.17-1.44,8.7-.96,2.52-2.35,4.65-4.17,6.4-1.82,1.74-4.03,3.07-6.63,3.98-2.6.91-5.54,1.36-8.81,1.36ZM500.71,337.06c2.55,0,4.81-.6,6.79-1.79,1.97-1.2,3.51-2.83,4.6-4.91,1.09-2.08,1.64-4.47,1.64-7.18s-.56-5.11-1.68-7.21c-1.12-2.11-2.65-3.76-4.6-4.95-1.95-1.2-4.2-1.79-6.75-1.79s-4.72.61-6.67,1.83c-1.95,1.22-3.48,2.89-4.6,4.99s-1.68,4.48-1.68,7.14.56,5.03,1.68,7.14,2.65,3.76,4.6,4.95c1.95,1.2,4.17,1.79,6.67,1.79Z"/>
    <path class="st2" d="M538.7,293.69c-1.72,0-3.04-.44-3.98-1.33-.94-.88-1.4-2.13-1.4-3.74,0-1.51.48-2.73,1.44-3.67.96-.94,2.27-1.4,3.94-1.4s3.04.44,3.98,1.33c.94.88,1.4,2.13,1.4,3.74,0,1.51-.48,2.73-1.44,3.67-.96.94-2.28,1.4-3.94,1.4ZM534.8,343.69v-40.95h8.03v40.95h-8.03Z"/>
    <path class="st2" d="M573.33,344.47c-3.8,0-7.19-.94-10.18-2.81-2.99-1.87-5.36-4.42-7.1-7.64-1.74-3.22-2.61-6.84-2.61-10.84s.87-7.62,2.61-10.84c1.74-3.22,4.11-5.77,7.1-7.64,2.99-1.87,6.38-2.81,10.18-2.81s6.96.74,9.95,2.22,5.27,3.5,6.83,6.04l-4.45,5.46c-.83-1.2-1.9-2.29-3.2-3.28-1.3-.99-2.68-1.77-4.13-2.34-1.46-.57-2.86-.86-4.21-.86-2.5,0-4.72.61-6.67,1.83-1.95,1.22-3.5,2.9-4.64,5.03-1.14,2.13-1.72,4.52-1.72,7.18s.6,5.03,1.79,7.14c1.2,2.11,2.78,3.78,4.76,5.03,1.98,1.25,4.16,1.87,6.55,1.87,1.4,0,2.77-.23,4.09-.7,1.33-.47,2.61-1.17,3.86-2.11,1.25-.94,2.42-2.08,3.51-3.43l4.45,5.46c-1.67,2.34-4.04,4.26-7.14,5.77-3.09,1.51-6.31,2.26-9.63,2.26Z"/>
    <path class="st1" d="M623.25,343.69v-54.6h8.42v54.6h-8.42Z"/>
    <path class="st1" d="M645.87,343.69v-40.95h8.03v8.42l-1.4.94c.52-1.82,1.53-3.5,3.04-5.03,1.51-1.53,3.3-2.78,5.38-3.74,2.08-.96,4.21-1.44,6.4-1.44,3.12,0,5.72.61,7.8,1.83,2.08,1.22,3.64,3.08,4.68,5.58s1.56,5.64,1.56,9.44v24.96h-8.03v-24.41c0-2.34-.31-4.28-.94-5.81-.62-1.53-1.59-2.65-2.89-3.35-1.3-.7-2.91-1-4.84-.9-1.56,0-2.99.25-4.29.74-1.3.49-2.43,1.18-3.39,2.07-.96.88-1.72,1.91-2.26,3.08-.55,1.17-.82,2.43-.82,3.78v24.8h-8.03Z"/>
    <path class="st1" d="M710.14,344.47c-3.74,0-7.09-.92-10.02-2.77-2.94-1.85-5.27-4.37-6.98-7.57-1.72-3.2-2.57-6.85-2.57-10.96s.84-7.76,2.53-10.96c1.69-3.2,3.99-5.72,6.9-7.57,2.91-1.85,6.21-2.77,9.91-2.77,2.03,0,3.99.33,5.89.98,1.9.65,3.6,1.53,5.11,2.65,1.51,1.12,2.69,2.34,3.55,3.67.86,1.33,1.29,2.67,1.29,4.02l-2.34.16v-27.38h8.03v57.72h-8.03v-9.75h1.56c0,1.25-.42,2.48-1.25,3.71-.83,1.22-1.94,2.35-3.32,3.39-1.38,1.04-2.96,1.87-4.76,2.5-1.79.62-3.63.94-5.5.94ZM711.23,337.53c2.44,0,4.6-.62,6.47-1.87s3.34-2.95,4.41-5.11c1.06-2.16,1.6-4.61,1.6-7.37s-.53-5.21-1.6-7.37c-1.07-2.16-2.54-3.86-4.41-5.11s-4.03-1.87-6.47-1.87-4.6.62-6.47,1.87-3.34,2.95-4.41,5.11c-1.07,2.16-1.6,4.62-1.6,7.37s.53,5.21,1.6,7.37c1.06,2.16,2.53,3.86,4.41,5.11s4.03,1.87,6.47,1.87Z"/>
    <path class="st1" d="M758.89,344.47c-2.91,0-5.45-.68-7.61-2.03s-3.82-3.25-4.99-5.69c-1.17-2.44-1.75-5.36-1.75-8.74v-25.27h8.03v23.09c0,2.39.38,4.46,1.13,6.2.75,1.74,1.85,3.08,3.28,4.02,1.43.94,3.16,1.4,5.19,1.4,1.51,0,2.89-.25,4.13-.74,1.25-.49,2.33-1.18,3.24-2.07.91-.88,1.62-1.95,2.14-3.2.52-1.25.78-2.6.78-4.06v-24.65h8.03v40.95h-8.03v-8.58l1.4-.94c-.62,1.92-1.68,3.67-3.16,5.23s-3.24,2.8-5.26,3.71c-2.03.91-4.21,1.36-6.55,1.36Z"/>
    <path class="st1" d="M806.16,344.47c-3.43,0-6.53-.6-9.28-1.79-2.76-1.2-5.04-2.96-6.86-5.3l5.46-4.68c1.56,1.82,3.26,3.13,5.11,3.94,1.84.81,3.94,1.21,6.28,1.21.94,0,1.81-.12,2.61-.35.81-.23,1.51-.58,2.11-1.05.6-.47,1.05-1.03,1.36-1.68.31-.65.47-1.36.47-2.15,0-1.35-.49-2.44-1.48-3.28-.52-.36-1.34-.77-2.46-1.21-1.12-.44-2.56-.9-4.33-1.36-3.02-.78-5.49-1.66-7.41-2.65-1.92-.99-3.41-2.11-4.45-3.35-.78-.99-1.35-2.07-1.72-3.24-.37-1.17-.55-2.46-.55-3.86,0-1.72.38-3.29,1.13-4.72.75-1.43,1.79-2.68,3.12-3.74,1.33-1.06,2.89-1.88,4.68-2.46,1.79-.57,3.71-.86,5.73-.86s3.83.26,5.73.78c1.9.52,3.65,1.27,5.26,2.26,1.61.99,2.96,2.16,4.06,3.51l-4.6,5.07c-.99-.99-2.07-1.86-3.24-2.61-1.17-.75-2.35-1.34-3.55-1.76-1.2-.42-2.29-.62-3.28-.62-1.09,0-2.08.1-2.96.31-.88.21-1.63.52-2.22.94-.6.42-1.05.94-1.36,1.56s-.47,1.33-.47,2.11c.05.68.22,1.31.51,1.91.29.6.69,1.11,1.21,1.52.57.42,1.43.86,2.57,1.33,1.14.47,2.6.91,4.37,1.33,2.6.68,4.74,1.42,6.43,2.22,1.69.81,3.03,1.73,4.02,2.77,1.04.99,1.77,2.13,2.18,3.43.42,1.3.62,2.76.62,4.37,0,2.34-.66,4.43-1.99,6.28-1.33,1.85-3.11,3.29-5.34,4.33-2.24,1.04-4.73,1.56-7.49,1.56Z"/>
    <path class="st1" d="M827.22,310.54v-7.8h26.05v7.8h-26.05ZM835.72,343.69v-51.4h8.03v51.4h-8.03Z"/>
    <path class="st1" d="M861.38,343.69v-40.95h8.11v12.87l-.78-3.12c.57-1.98,1.55-3.77,2.92-5.38,1.38-1.61,2.96-2.89,4.76-3.82s3.65-1.4,5.58-1.4c.88,0,1.73.08,2.54.23.81.16,1.44.34,1.91.55l-2.11,8.74c-.62-.26-1.31-.48-2.07-.66-.75-.18-1.5-.27-2.22-.27-1.4,0-2.74.27-4.02.82-1.28.55-2.39,1.3-3.35,2.26-.96.96-1.73,2.08-2.3,3.35-.57,1.27-.86,2.67-.86,4.17v22.62h-8.11Z"/>
    <path class="st1" d="M900.46,361.63l8.27-19.11.08,6.4-20.44-46.18h9.36l12.79,30.11c.26.52.57,1.31.94,2.38.36,1.07.67,2.12.94,3.16l-2.03.47c.42-1.09.82-2.18,1.21-3.28.39-1.09.77-2.18,1.13-3.28l10.69-29.56h9.52l-16.85,40.95-6.94,17.94h-8.66Z"/>
    <path class="st1" d="M964.5,343.69v-54.6h8.42v54.6h-8.42Z"/>
    <path class="st1" d="M987.12,343.69v-40.95h8.03v8.42l-1.4.94c.52-1.82,1.53-3.5,3.04-5.03,1.51-1.53,3.3-2.78,5.38-3.74,2.08-.96,4.21-1.44,6.4-1.44,3.12,0,5.72.61,7.8,1.83,2.08,1.22,3.64,3.08,4.68,5.58s1.56,5.64,1.56,9.44v24.96h-8.03v-24.41c0-2.34-.31-4.28-.94-5.81-.62-1.53-1.59-2.65-2.89-3.35-1.3-.7-2.91-1-4.84-.9-1.56,0-2.99.25-4.29.74-1.3.49-2.43,1.18-3.39,2.07-.96.88-1.71,1.91-2.26,3.08-.55,1.17-.82,2.43-.82,3.78v24.8h-8.03Z"/>
    <path class="st1" d="M1047.95,344.47c-3.43,0-6.53-.6-9.28-1.79-2.76-1.2-5.04-2.96-6.86-5.3l5.46-4.68c1.56,1.82,3.26,3.13,5.11,3.94,1.85.81,3.94,1.21,6.28,1.21.94,0,1.81-.12,2.61-.35.81-.23,1.51-.58,2.11-1.05.6-.47,1.05-1.03,1.37-1.68.31-.65.47-1.36.47-2.15,0-1.35-.5-2.44-1.48-3.28-.52-.36-1.34-.77-2.46-1.21-1.12-.44-2.56-.9-4.33-1.36-3.02-.78-5.49-1.66-7.41-2.65-1.92-.99-3.41-2.11-4.45-3.35-.78-.99-1.35-2.07-1.71-3.24-.37-1.17-.55-2.46-.55-3.86,0-1.72.38-3.29,1.13-4.72.75-1.43,1.79-2.68,3.12-3.74,1.33-1.06,2.89-1.88,4.68-2.46,1.79-.57,3.71-.86,5.73-.86s3.83.26,5.73.78c1.9.52,3.65,1.27,5.27,2.26,1.61.99,2.96,2.16,4.06,3.51l-4.6,5.07c-.99-.99-2.07-1.86-3.24-2.61-1.17-.75-2.35-1.34-3.55-1.76-1.2-.42-2.29-.62-3.28-.62-1.09,0-2.08.1-2.96.31-.88.21-1.62.52-2.22.94-.6.42-1.05.94-1.37,1.56-.31.62-.47,1.33-.47,2.11.05.68.22,1.31.51,1.91.29.6.69,1.11,1.21,1.52.57.42,1.43.86,2.57,1.33,1.14.47,2.6.91,4.37,1.33,2.6.68,4.75,1.42,6.43,2.22,1.69.81,3.03,1.73,4.02,2.77,1.04.99,1.77,2.13,2.18,3.43.42,1.3.62,2.76.62,4.37,0,2.34-.66,4.43-1.99,6.28-1.33,1.85-3.11,3.29-5.34,4.33-2.24,1.04-4.73,1.56-7.49,1.56Z"/>
    <path class="st1" d="M1077.67,293.69c-1.72,0-3.04-.44-3.98-1.33-.94-.88-1.4-2.13-1.4-3.74,0-1.51.48-2.73,1.44-3.67.96-.94,2.28-1.4,3.94-1.4s3.04.44,3.98,1.33c.94.88,1.4,2.13,1.4,3.74,0,1.51-.48,2.73-1.44,3.67-.96.94-2.28,1.4-3.94,1.4ZM1073.77,343.69v-40.95h8.04v40.95h-8.04Z"/>
    <path class="st1" d="M1113.24,361.63c-2.91,0-5.81-.46-8.7-1.36-2.89-.91-5.21-2.09-6.98-3.55l2.96-6.24c1.04.78,2.26,1.47,3.67,2.07,1.4.6,2.89,1.06,4.45,1.4,1.56.34,3.09.51,4.6.51,2.86,0,5.25-.47,7.18-1.4s3.38-2.31,4.37-4.13c.99-1.82,1.48-4.08,1.48-6.79v-7.88l.86.55c-.26,1.61-1.11,3.16-2.54,4.64-1.43,1.48-3.21,2.69-5.34,3.63-2.13.94-4.32,1.4-6.55,1.4-3.9,0-7.37-.92-10.41-2.77-3.04-1.85-5.45-4.37-7.21-7.57-1.77-3.2-2.65-6.85-2.65-10.96s.87-7.76,2.61-10.96c1.74-3.2,4.13-5.72,7.18-7.57,3.04-1.85,6.46-2.77,10.26-2.77,1.56,0,3.07.2,4.52.58,1.46.39,2.81.94,4.06,1.64s2.37,1.47,3.35,2.3c.99.83,1.79,1.72,2.42,2.65.62.94,1.01,1.82,1.17,2.65l-1.72.62v-9.59h8.03v38.45c0,3.28-.48,6.17-1.44,8.7-.96,2.52-2.35,4.65-4.17,6.4-1.82,1.74-4.03,3.07-6.63,3.98-2.6.91-5.54,1.36-8.81,1.36ZM1113.55,337.06c2.55,0,4.81-.6,6.79-1.79,1.98-1.2,3.51-2.83,4.6-4.91,1.09-2.08,1.64-4.47,1.64-7.18s-.56-5.11-1.68-7.21-2.65-3.76-4.6-4.95c-1.95-1.2-4.2-1.79-6.75-1.79s-4.72.61-6.67,1.83c-1.95,1.22-3.48,2.89-4.6,4.99-1.12,2.11-1.68,4.48-1.68,7.14s.56,5.03,1.68,7.14c1.12,2.11,2.65,3.76,4.6,4.95,1.95,1.2,4.17,1.79,6.67,1.79Z"/>
    <path class="st1" d="M1146.31,343.69v-57.72h8.03v25.19l-1.4.94c.52-1.82,1.53-3.5,3.04-5.03,1.51-1.53,3.3-2.78,5.38-3.74,2.08-.96,4.21-1.44,6.4-1.44,3.12,0,5.72.61,7.8,1.83,2.08,1.22,3.64,3.08,4.68,5.58s1.56,5.64,1.56,9.44v24.96h-8.03v-24.41c0-2.34-.31-4.28-.94-5.81-.62-1.53-1.59-2.65-2.89-3.35-1.3-.7-2.91-1-4.84-.9-1.56,0-2.99.25-4.29.74-1.3.49-2.43,1.18-3.39,2.07-.96.88-1.71,1.91-2.26,3.08-.55,1.17-.82,2.43-.82,3.78v24.8h-8.03Z"/>
    <path class="st1" d="M1190.07,310.54v-7.8h26.05v7.8h-26.05ZM1198.57,343.69v-51.4h8.03v51.4h-8.03Z"/>
    <path class="st1" d="M1239.44,344.47c-3.43,0-6.53-.6-9.28-1.79-2.76-1.2-5.04-2.96-6.86-5.3l5.46-4.68c1.56,1.82,3.26,3.13,5.11,3.94,1.84.81,3.94,1.21,6.28,1.21.94,0,1.81-.12,2.61-.35.81-.23,1.51-.58,2.11-1.05.6-.47,1.05-1.03,1.36-1.68.31-.65.47-1.36.47-2.15,0-1.35-.49-2.44-1.48-3.28-.52-.36-1.34-.77-2.46-1.21-1.12-.44-2.56-.9-4.33-1.36-3.02-.78-5.49-1.66-7.41-2.65-1.92-.99-3.41-2.11-4.45-3.35-.78-.99-1.35-2.07-1.72-3.24-.36-1.17-.55-2.46-.55-3.86,0-1.72.38-3.29,1.13-4.72.75-1.43,1.79-2.68,3.12-3.74,1.33-1.06,2.89-1.88,4.68-2.46,1.79-.57,3.71-.86,5.73-.86,1.92,0,3.83.26,5.73.78,1.9.52,3.65,1.27,5.26,2.26,1.61.99,2.96,2.16,4.06,3.51l-4.6,5.07c-.99-.99-2.07-1.86-3.24-2.61-1.17-.75-2.35-1.34-3.55-1.76-1.2-.42-2.29-.62-3.28-.62-1.09,0-2.08.1-2.96.31-.88.21-1.63.52-2.22.94-.6.42-1.05.94-1.36,1.56-.31.62-.47,1.33-.47,2.11.05.68.22,1.31.51,1.91.29.6.69,1.11,1.21,1.52.57.42,1.43.86,2.57,1.33,1.14.47,2.6.91,4.37,1.33,2.6.68,4.74,1.42,6.44,2.22,1.69.81,3.03,1.73,4.02,2.77,1.04.99,1.77,2.13,2.18,3.43.42,1.3.62,2.76.62,4.37,0,2.34-.66,4.43-1.99,6.28-1.33,1.85-3.11,3.29-5.34,4.33-2.24,1.04-4.73,1.56-7.49,1.56Z"/>
  </g>
  <rect class="st2" x="120.44" y="104.9" width="15" height="238.79"/>
</svg>