<svg xmlns="http://www.w3.org/2000/svg" xml:space="preserve" aria-hidden="true" viewBox="0 0 600 83"><switch><g fill="#231F20"><path d="M0 52.9h8.1V11.6H0V1h31.3L45 37.6 59.2 1h31.6v10.6h-8.1v41.3H91v10.6H58.8V52.9H67V11.6h-1.5L46 63.5h-6.8L19.7 11.6h-1.5v41.3h8.2v10.6H0V52.9zm139 .9c-4.5 7-11.9 10.7-21.3 10.7-15.1 0-24.6-8.5-24.6-22 0-13.6 9.8-23.5 23.5-23.5 13.1 0 23.5 10 22.4 25.7h-31.8c.1 5 2.8 10.9 10.7 10.9 3.7 0 6.1-1.2 10.1-5.1l11 3.3zm-13.7-16.9c-.7-5.5-4.1-8.8-9.2-8.8s-8.1 2.9-8.9 8.8h18.1zm69.1 26.6h-20.8v-5.2c-4.2 4.1-7.9 5.8-12.6 5.8-10.7 0-18.8-9.7-18.8-22.6 0-12.7 8.2-22.5 18.9-22.5 4.9 0 9.3 2.1 12.5 5.8V11h-6.7V1h20.8v52.4h6.7v10.1zM165 30.4c-5.2 0-8.5 4.3-8.5 11.4 0 7 3.3 11.6 8.6 11.6 4.3 0 8.7-3.4 8.7-11.9 0-6.5-3.3-11.1-8.8-11.1zM258.1 1v22h-10.6c-1.1-2.9-3-6.3-4.8-7.7-4.4-3.4-6.7-4.1-10.8-4.1-11.2 0-18.6 8.5-18.6 21.2 0 12.1 7.2 20.5 17.6 20.5 8.6 0 15.1-6 17.4-16.3l12.3 5.9C256 59.3 242 64.3 229.7 64.3c-26.7 0-33.8-18.5-33.8-32.1 0-19 13.3-32.2 32.8-32.2 7.6 0 13.1 1.4 18.9 4.7V1h-8.7V0H295v.9h-10.4v62.6H265v-5c-4.9 4.3-10.1 6-17 6-17.4 0-31-14.5-31-32.7 0-18.3 13.3-32.3 30.8-32.3 7 0 12.7 2.2 17.2 6.7V1h-6.9zm21.6 32.6c0-12.7-7.9-21.8-18.9-21.8-11.5 0-18.6 8.3-18.6 21.3 0 13.4 7.5 22.2 18.8 22.2 10.7-.1 18.7-8.9 18.7-21.7zm74.7-14.3v43.3h-19.4V20.8h-5.2V10.6h5.2V4.3c0-8.2 4.5-13.8 11.7-13.8 3.4 0 5.6.8 7.7 1.8v10.1c-1.8-.7-3.1-1-4.7-1-2.4 0-3.5 1.8-3.5 5.1v4.1h8.2v10.2h-8.2c.1 0 .2 0 .2.1l.2 0h8zM354.4 0v11.5h-5.8V1.5c0-3.2-1-5.1-3.1-5.1-.8 0-1.5.3-2.1.8V0h11zm50.5 10.5v43.1h-19.7V10.5h19.7zm.8-8.5c0 6.1-4.9 10.9-11.4 10.9-6.1 0-11-4.8-11-10.9C383.3 1 388.3-3.7 394.3-3.7c6.5.1 11.4 4.9 11.4 10.7zm71 37.6c-3.9 5.4-9.7 8.6-16.6 8.6-13 0-21.6-8.5-21.6-21.4 0-12.7 8.8-22.1 21.9-22.1 12.4 0 20.9 8.5 20.9 21.1v3.5h-29.2c.4 5.8 4.4 9.5 10.5 9.5 3.7 0 6.5-1.5 9.2-5l4.9 5.8zm-7.5-17.1c-.5-5.2-3.6-8.7-8.9-8.7-5.1 0-8.7 3.4-9.4 8.7h18.3zm80.3 31.1h-19.7V33.8c0-6.6-2.2-10.8-7.7-10.8-3.9 0-7.6 2.6-9.3 6.3v24.3h-19.7V10.5h18.5v6.2c3.3-4.7 8.4-7.2 14.2-7.2 13.4 0 23.7 9.9 23.7 24v20.1zm60.9 0h-20.8v-5.2c-4.2 4.1-7.9 5.8-12.6 5.8-10.7 0-18.8-9.7-18.8-22.6 0-12.7 8.2-22.5 18.9-22.5 4.9 0 9.3 2.1 12.5 5.8V11h-6.7V1H600v52.4h6.7v10.1h-2.3zM584 30.4c-5.2 0-8.5 4.3-8.5 11.4 0 7 3.3 11.6 8.6 11.6 4.3 0 8.7-3.4 8.7-11.9 0-6.5-3.3-11.1-8.8-11.1z"/></g></switch></svg>
