<?xml version="1.0" encoding="UTF-8"?>
<svg id="Layer_1" xmlns="http://www.w3.org/2000/svg" version="1.1" viewBox="0 0 123.1 33.7">
  <!-- Generator: Adobe Illustrator 29.0.0, SVG Export Plug-In . SVG Version: 2.1.0 Build 186)  -->
  <defs>
    <style>
      .st0 {
        fill: #d64000;
      }

      .st1 {
        fill: #212223;
      }
    </style>
  </defs>
  <g id="r_pri_logo_rgb_color">
    <g id="Group_3755">
      <path id="Path_79" class="st1" d="M39.6,8.2h6.9c3.8,0,6.3,2.2,6.3,5.6s-1.1,3.9-2.9,4.7l3.4,6.5h-4.1l-2.9-5.7h-3.1v5.7h-3.7V8.2ZM43.2,11.2v5.2h3c1.4.1,2.7-.9,2.8-2.4s-.9-2.7-2.4-2.8c-.2,0-.3,0-.5,0h-3Z"/>
      <path id="Path_80" class="st1" d="M53.7,18.9c0-3.8,2.6-6.3,6.4-6.3s6.3,2.3,6.3,5.9c0,.4,0,.8,0,1.2h-9.1v.2c0,1.5,1.1,2.8,2.7,2.8,0,0,.2,0,.3,0,1.7,0,2.4-.6,2.7-1.8h3.4c-.4,2.4-2.6,4.3-5.9,4.3-3.6.1-6.6-2.7-6.7-6.3h0s0,0,0,0ZM63.1,17.5c-.2-1.4-1.4-2.5-2.9-2.4-1.4-.1-2.7.9-2.8,2.4h5.7Z"/>
      <path id="Path_81" class="st1" d="M76.4,12.7h3.4v12.4h-3l-.3-1.5c-.9,1.1-2.3,1.7-3.7,1.6-2.6,0-5-1.3-5-5.7v-6.9h3.4v6.4c0,2.2.7,3.3,2.4,3.3s2.7-1.2,2.7-3.5v-6.2h0Z"/>
      <path id="Path_82" class="st1" d="M81.9,9.3h3.4v3.5h2.9v2.9h-2.9v5.4c0,.9.3,1.2,1.2,1.2h1.8v2.9h-2.9c-2.4,0-3.6-1.2-3.6-3.5v-12.3h0Z"/>
      <path id="Path_83" class="st1" d="M88.9,18.9c0-3.8,2.6-6.3,6.4-6.3s6.3,2.3,6.3,5.9c0,.4,0,.8,0,1.2h-9.1v.2c0,1.5,1.1,2.8,2.7,2.8,0,0,.2,0,.3,0,1.7,0,2.4-.6,2.7-1.8h3.4c-.4,2.4-2.6,4.3-5.9,4.3-3.6.1-6.6-2.7-6.7-6.3,0,0,0,0,0,0h0ZM98.2,17.5c-.2-1.4-1.4-2.5-2.9-2.4-1.4-.1-2.7.9-2.8,2.4h5.7Z"/>
      <path id="Path_84" class="st1" d="M110.9,12.7v3.1h-1.4c-2,0-2.8,1.3-2.8,3.2v6.1h-3.4v-12.4h3.1l.3,1.9c.7-1.3,2.1-2,3.6-1.9h.6,0Z"/>
      <path id="Path_85" class="st1" d="M114.7,21c.1,1.1,1.1,1.8,2.8,1.8s2.3-.5,2.3-1.3-.9-1.1-2.9-1.3c-2.9-.3-5.2-1-5.2-3.5s2.2-4.1,5.4-4c3.4,0,5.7,1.5,5.8,4h-3.3c0-1-1-1.6-2.4-1.6s-2.2.5-2.2,1.3,1.1,1,2.9,1.3c2.9.3,5.3.9,5.3,3.7s-2.3,4-5.7,4-5.8-1.6-6-4.3h3.3,0Z"/>
    </g>
    <g id="Group_3756">
      <path id="Path_86" class="st0" d="M29.1,4.5c.9.9.9,2.3,0,3.2-.9.9-2.3.9-3.2,0-.9-.9-.9-2.3,0-3.2.4-.4,1-.7,1.6-.7.6,0,1.2.2,1.6.7Z"/>
      <path id="Path_87" class="st0" d="M4.5,29.2c-.9-.9-.9-2.3,0-3.2.9-.9,2.3-.9,3.2,0,0,0,0,0,0,0,.9.9.9,2.3,0,3.2-.9.9-2.3.9-3.2,0,0,0,0,0,0,0Z"/>
      <path id="Path_88" class="st0" d="M21.9,4.7h0c-.5-.2-.9-.6-1.1-1.1-.2-.5-.2-1,0-1.5.2-.5.6-.9,1.1-1.1.5-.2,1-.2,1.5,0,1,.4,1.5,1.6,1.1,2.6-.4,1-1.6,1.5-2.6,1.1h0Z"/>
      <path id="Path_89" class="st0" d="M11,28.9c.3,0,.5,0,.8.2,1,.4,1.5,1.6,1.1,2.6-.2.5-.6.9-1.1,1.1-.5.2-1,.2-1.5,0-1-.4-1.5-1.6-1.1-2.6.2-.5.6-.9,1.1-1.1.2,0,.5-.2.8-.2Z"/>
      <path id="Path_90" class="st0" d="M18.6,1.7c0,.9-.7,1.7-1.6,1.7h0c-.9,0-1.7-.8-1.7-1.7,0-.9.8-1.7,1.7-1.7s1.7.8,1.7,1.7Z"/>
      <path id="Path_91" class="st0" d="M15.1,32c0-.9.8-1.7,1.7-1.7s1.7.8,1.7,1.7c0,.9-.8,1.7-1.7,1.7-.9,0-1.7-.8-1.7-1.7Z"/>
      <path id="Path_92" class="st0" d="M11.6,4.2c-.7.3-1.6,0-1.9-.8-.3-.7,0-1.6.8-1.9,0,0,0,0,0,0,.2,0,.4-.1.5-.1.8,0,1.4.6,1.4,1.4,0,.2,0,.4-.1.5-.1.4-.4.6-.8.8h0Z"/>
      <path id="Path_93" class="st0" d="M22.1,29.5c.2,0,.4-.1.5-.1.2,0,.4,0,.5.1.7.3,1.1,1.1.8,1.9-.1.4-.4.6-.8.8-.3.1-.7.1-1.1,0-.3-.1-.6-.4-.8-.8-.1-.3-.1-.7,0-1.1.1-.3.4-.6.8-.8Z"/>
      <path id="Path_94" class="st0" d="M6.9,5.3c.4.4.4,1.1,0,1.6h0c-.4.5-1.2.5-1.6,0s-.4-1.2,0-1.6c.4-.4,1.2-.4,1.6,0Z"/>
      <path id="Path_95" class="st0" d="M26.7,26.8c.4-.5,1.2-.5,1.6,0,.5.4.5,1.2,0,1.6-.4.5-1.2.5-1.6,0-.2-.2-.3-.5-.3-.8,0-.3.1-.6.3-.8Z"/>
      <path id="Path_96" class="st0" d="M2.3,12.4c-.7-.3-1.1-1.1-.8-1.9.1-.4.4-.6.8-.8.4-.1.7-.1,1.1,0,.7.3,1.1,1.1.8,1.9-.1.4-.4.6-.8.8-.3.1-.7.1-1.1,0h0Z"/>
      <path id="Path_97" class="st0" d="M31.4,21.3c.4.1.6.4.8.8.3.7,0,1.6-.8,1.9-.3.1-.7.1-1.1,0-.3-.1-.6-.4-.8-.8-.3-.7,0-1.6.8-1.9.2,0,.4-.1.5-.1.6,0,.4,0,.5.1h0Z"/>
      <path id="Path_98" class="st0" d="M0,16.9c0-.9.8-1.7,1.7-1.7.9,0,1.7.8,1.7,1.7s-.8,1.7-1.7,1.7c-.9,0-1.7-.8-1.7-1.7Z"/>
      <path id="Path_99" class="st0" d="M30.3,16.9c0-.9.8-1.7,1.7-1.7.9,0,1.7.8,1.7,1.7s-.8,1.7-1.7,1.7c-.9,0-1.7-.8-1.7-1.7Z"/>
      <path id="Path_100" class="st0" d="M1,23.4c-.4-1,0-2.2,1.1-2.6.5-.2,1-.2,1.5,0,.5.2.9.6,1.1,1.1.2.5.2,1,0,1.5-.2.5-.6.9-1.1,1.1-.5.2-1,.2-1.5,0-.5-.2-.9-.6-1.1-1.1h0Z"/>
      <path id="Path_101" class="st0" d="M29,11.8c-.2-.5-.2-1,0-1.5.2-.5.6-.9,1.1-1.1.2-.1.5-.2.8-.2,1.1,0,2,.9,2,2,0,.8-.5,1.5-1.2,1.8-.5.2-1,.2-1.5,0-.5-.2-.9-.6-1.1-1.1h0Z"/>
      <path id="Path_102" class="st0" d="M21.7,21.7c0,.4.3.7.7.7.4,0,.7-.3.7-.7,0-.4-.3-.7-.7-.7-.4,0-.7.3-.7.7h0Z"/>
      <path id="Path_103" class="st0" d="M8.3,15.9c-.7-.2-1.1-.9-.9-1.5,0,0,0,0,0,0,0-.3.3-.6.6-.8.2-.1.4-.2.6-.2.1,0,.2,0,.3,0,.3,0,.6.3.8.6.2.3.2.6.1,1-.2.7-.9,1.1-1.6.9h0Z"/>
      <path id="Path_104" class="st0" d="M24.7,20.3c-.3,0-.6-.3-.8-.6-.2-.3-.2-.6-.1-1,0-.3.3-.6.6-.8.2-.1.4-.2.6-.2,0,0,.2,0,.3,0h0c.7.2,1.1.9.9,1.6,0,0,0,0,0,0,0,.3-.3.6-.6.8-.3.2-.6.2-1,.1h0Z"/>
      <path id="Path_105" class="st0" d="M7.7,19.3c-.1-.5.2-1.1.7-1.2h0c.5-.2,1.1.2,1.2.7,0,0,0,0,0,0,0,.3,0,.5-.1.8-.1.2-.4.4-.6.5-.3,0-.5,0-.8-.1-.2-.1-.4-.4-.5-.6h0Z"/>
      <path id="Path_106" class="st0" d="M24.5,15.6h0c-.5-.3-.6-1-.3-1.4s.9-.6,1.4-.3c.2.1.4.3.4.6.1.5-.2,1.1-.7,1.2-.3,0-.5,0-.8-.1Z"/>
      <path id="Path_107" class="st0" d="M11.4,23.3h0c-.3.3-.8.3-1.1,0-.3-.3-.3-.8,0-1.1.3-.3.8-.3,1.1,0,.1.1.2.3.2.5,0,.2,0,.4-.2.5Z"/>
      <path id="Path_108" class="st0" d="M23.4,10.3c.3.3.3.8,0,1.1-.3.3-.8.3-1.1,0-.3-.3-.3-.8,0-1.1.1-.1.3-.2.5-.2.2,0,.4,0,.5.2Z"/>
      <path id="Path_109" class="st0" d="M15.5,24.5c.1.2.2.5.1.8-.1.5-.7.9-1.2.7-.5-.1-.9-.7-.7-1.2,0-.3.2-.5.5-.6.2-.1.5-.2.8,0,.3,0,.5.2.6.5h0Z"/>
      <path id="Path_110" class="st0" d="M18.1,9.2c-.1-.2-.2-.5-.1-.8,0-.3.2-.5.5-.6.2,0,.3-.1.5-.1,0,0,.2,0,.3,0,.3,0,.5.2.6.5.1.2.2.5.1.8-.1.5-.7.9-1.2.7-.3,0-.5-.2-.6-.5h0Z"/>
      <path id="Path_111" class="st0" d="M19.7,23.9h0c.6.4.8,1.2.4,1.8-.2.3-.4.5-.7.5-.3,0-.7,0-1-.1-.3-.2-.5-.4-.6-.8-.2-.7.2-1.4.9-1.6,0,0,0,0,0,0,.1,0,.2,0,.3,0,.2,0,.4,0,.6.2h0Z"/>
      <path id="Path_112" class="st0" d="M15,9.9c-.7.2-1.4-.2-1.6-.9-.2-.7.2-1.4.9-1.6.1,0,.2,0,.3,0,.7,0,1.3.6,1.3,1.3,0,.6-.4,1.1-.9,1.2h0Z"/>
      <path id="Path_113" class="st0" d="M10.9,12.5c.9,0,1.6-.7,1.6-1.6,0-.9-.7-1.6-1.6-1.6-.9,0-1.6.7-1.6,1.6,0,0,0,0,0,0,0,.9.7,1.6,1.6,1.6,0,0,0,0,0,0Z"/>
    </g>
  </g>
</svg>