<svg width="160" height="42" viewBox="0 0 160 42" fill="none" xmlns="http://www.w3.org/2000/svg">
<path fill-rule="evenodd" clip-rule="evenodd" d="M38.6923 0H4.46154C2 0 0 1.93961 0 4.32682V37.524C0 39.9112 2 41.8508 4.46154 41.8508H38.6923C41.1538 41.8508 43.1538 39.9112 43.1538 37.524V4.32682C43.0769 1.93961 41.1538 0 38.6923 0ZM39.3077 18.8739L27.6923 37.2256C26.8461 38.5684 25 39.016 23.6154 38.1954L4.76923 26.9307C3.38461 26.1101 2.92308 24.3197 3.76923 22.9769L15.3846 4.62522C16.2308 3.28242 18.0769 2.83481 19.4615 3.65542L38.3846 14.9201C39.6923 15.7407 40.1538 17.5311 39.3077 18.8739ZM71.5385 27.0054C73.6923 24.6928 74.4616 21.7833 74.4616 17.6057H74.6154V0.149224H67.3077V17.6057C67.3077 19.7691 67.077 21.4103 66.077 22.6039C65.077 23.723 63.6154 24.469 61.6154 24.469C59.5385 24.469 58.1539 23.723 57.1539 22.6039C56.077 21.4103 55.9231 19.7691 55.9231 17.6057V0.149224H48.6154V17.6057C48.6154 21.7833 49.3847 24.6928 51.5385 27.0054C53.6923 29.318 57 30.5862 61.5385 30.5862C66 30.5862 69.3846 29.2434 71.5385 27.0054ZM96.077 30.1386H104.769L93.1539 12.0853L104 0.149224H95.3847L85.8462 11.1155V0.149224H78.6154V30.1386H85.8462V20.2913L88.3077 17.6057L96.077 30.1386ZM128.231 5.74426H120.231V30.1386H113V5.74426H105V0.149224H128.231V5.74426ZM152.538 30.1386H160V0.149224H152.923V13.7265C152.923 16.9343 153.077 20.2913 153.077 20.2913L139.846 0.149224H132.077V30.2132H139.154V16.6359C139.154 13.4281 139 9.84728 139 9.84728L152.538 30.1386ZM51.4615 36.9272H53.3076V36.1066H48.6923V36.9272H50.4615V41.7762H51.4615V36.9272ZM60.077 41.8508H59.077V39.3144H56.4616V41.8508H55.4616V36.1812H56.4616V38.5684H59.077V36.1812H60.077V41.8508ZM63.5385 39.3144H65.8462V38.5684H63.4616V37.0018H66.2308V36.1812H62.4615V41.8508H66.3077V41.0302H63.5385V39.3144ZM76.4616 41.8508H75.4616V39.3144H72.8462V41.8508H71.8462V36.1812H72.8462V38.5684H75.4616V36.1812H76.4616V41.8508ZM83.3077 40.6572C83.5384 40.2096 83.6154 39.6874 83.6154 39.1652V38.9414C83.6154 38.4192 83.5384 37.9716 83.3077 37.524C83.0769 37.0764 82.8461 36.778 82.4615 36.5542C82.1538 36.3304 81.6923 36.2558 81.2307 36.2558C80.7692 36.2558 80.3846 36.3304 80 36.5542C79.6154 36.778 79.3846 37.0764 79.1538 37.524C78.9231 37.9716 78.8461 38.4938 78.8461 39.016V39.3144C78.8461 39.8366 78.9231 40.2842 79.1538 40.7318C79.3077 41.1794 79.6923 41.4778 80 41.7016C80.3077 41.9254 80.7692 42 81.2307 42C81.6923 42 82.0769 41.8508 82.4615 41.627C82.8461 41.4032 83.0769 41.1048 83.3077 40.6572ZM82.2307 37.4494C82.4615 37.7478 82.6154 38.27 82.6154 38.8668V39.1652C82.6154 39.762 82.4615 40.2842 82.2307 40.5826C82 40.9556 81.6923 41.1048 81.2307 41.1048C80.7692 41.1048 80.3846 40.9556 80.1538 40.5826C79.923 40.2842 79.7692 39.762 79.7692 39.1652V38.8668C79.7692 38.27 79.923 37.7478 80.1538 37.4494C80.3846 37.0764 80.6923 36.9272 81.1538 36.9272C81.6154 36.9272 82 37.151 82.2307 37.4494ZM87.2308 36.1812L88.9231 40.508L90.6154 36.1812H91.9231V41.8508H90.9231V39.9858L91.0001 37.524L89.3077 41.8508H88.6154L86.9231 37.524L87.0001 39.9858V41.8508H86.0001V36.1812H87.2308ZM95.4615 39.3144H97.7692V38.5684H95.3846V37.0018H98.1538V36.1812H94.3846V41.8508H98.2307V41.0302H95.4615V39.3144ZM108.385 39.1652C108.385 39.6874 108.308 40.2096 108.077 40.6572C107.846 41.1048 107.615 41.4032 107.231 41.627C106.846 41.8508 106.462 42 106 42C105.538 42 105.077 41.9254 104.769 41.7016C104.462 41.4778 104.077 41.1794 103.923 40.7318C103.692 40.2842 103.615 39.8366 103.615 39.3144V39.016C103.615 38.4938 103.692 37.9716 103.923 37.524C104.154 37.0764 104.385 36.778 104.769 36.5542C105.154 36.3304 105.538 36.2558 106 36.2558C106.462 36.2558 106.923 36.3304 107.231 36.5542C107.615 36.778 107.846 37.0764 108.077 37.524C108.308 37.9716 108.385 38.4192 108.385 38.9414V39.1652ZM107.308 38.8668C107.308 38.27 107.154 37.7478 106.923 37.4494C106.692 37.151 106.308 36.9272 105.846 36.9272C105.385 36.9272 105.077 37.0764 104.846 37.4494C104.615 37.7478 104.462 38.27 104.462 38.8668V39.1652C104.462 39.762 104.615 40.2842 104.846 40.5826C105.077 40.9556 105.462 41.1048 105.923 41.1048C106.385 41.1048 106.692 40.9556 106.923 40.5826C107.154 40.2842 107.308 39.762 107.308 39.1652V38.8668ZM111.615 39.4636H114V38.643H111.615V37.0018H114.308V36.1812H110.615V41.8508H111.615V39.4636ZM124.077 36.2558V39.9858C124.077 40.5826 123.846 41.0302 123.462 41.4032C123.077 41.7762 122.538 41.9254 121.846 41.9254C121.154 41.9254 120.615 41.7762 120.231 41.4032C119.846 41.0302 119.615 40.5826 119.615 39.9858V36.1812H120.615V39.9858C120.615 40.3588 120.692 40.6572 120.923 40.881C121.154 41.1048 121.385 41.1794 121.769 41.1794C122.538 41.1794 122.923 40.8064 122.923 39.9858V36.2558H124.077ZM127.461 40.0604L128.154 39.389L129.846 41.8508H131.077L128.769 38.7176L130.923 36.1812H129.692L128 38.1954L127.461 38.8668V36.1812H126.461V41.8508H127.461V40.0604ZM140.231 36.9272H138.385V41.7762H137.385V36.9272H135.615V36.1066H140.231V36.9272ZM143.385 39.3144H145.692V38.5684H143.308V37.0018H146.077V36.1812H142.308V41.8508H146.154V41.0302H143.385V39.3144ZM152.692 39.9858C152.615 40.5826 152.385 41.0302 152 41.4032C151.615 41.7762 151.077 41.9254 150.384 41.9254C149.923 41.9254 149.538 41.8508 149.154 41.627C148.769 41.4032 148.538 41.1048 148.308 40.7318C148.154 40.3588 148 39.9112 148 39.389V38.8668C148 38.3446 148.077 37.897 148.308 37.4494C148.538 37.0764 148.769 36.7034 149.154 36.4796C149.538 36.2558 149.923 36.1812 150.384 36.1812C151 36.1812 151.538 36.3304 151.923 36.7034C152.308 37.0764 152.538 37.524 152.615 38.1208H151.615C151.538 37.7478 151.461 37.4494 151.231 37.2256C151 37.0764 150.769 36.9272 150.384 36.9272C149.923 36.9272 149.615 37.0764 149.384 37.3748C149.154 37.6732 149 38.1208 149 38.7176V39.2398C149 39.8366 149.077 40.2842 149.308 40.6572C149.538 41.0302 149.846 41.1048 150.308 41.1048C150.692 41.1048 151 41.0302 151.231 40.881C151.461 40.7318 151.538 40.4334 151.615 39.9858H152.692ZM158.538 41.8508H159.538V36.1812H158.538V38.5684H155.923V36.1812H154.923V41.8508H155.923V39.3144H158.538V41.8508Z" fill="#0D9488"/>
</svg>
