<svg width="63" height="60" viewBox="0 0 63 60" fill="none" xmlns="http://www.w3.org/2000/svg">
<g clip-path="url(#clip0_230_3)">
<path d="M62.778 7.461V0H0L0.072 60H48.498V32.286H62.043V24.825H48.498V7.461H62.778ZM40.416 42.807V42.99C40.416 46.125 39.531 48.522 37.716 50.253C36.168 51.693 33.993 52.686 31.227 53.205C30.3625 53.3619 29.4886 53.4621 28.611 53.505C28.341 53.5341 28.0695 53.5461 27.798 53.541L7.2 53.499V6.672H24.708C29.574 6.672 33.042 7.779 35.07 9.993C36.0706 11.0451 36.7375 12.3697 36.987 13.8C37.0892 14.2607 37.1505 14.7295 37.17 15.201V16.086C37.17 19.086 36.27 21.396 34.551 23.055L33.951 23.571C33.1733 24.1556 32.3168 24.6273 31.407 24.972C31.038 25.122 30.594 25.272 30.078 25.452L28.752 25.857C26.43 26.559 24.696 27.408 23.628 28.365C21.303 30.429 19.977 32.79 19.608 35.445C19.4855 36.2506 19.4734 37.0691 19.572 37.878C19.572 37.878 19.644 38.478 19.683 38.577L19.719 38.727L19.791 38.652L19.83 38.616C21.33 35.961 23.664 34.263 26.835 33.564C29.7549 32.8848 32.8204 33.25 35.499 34.596C36.5536 35.1031 37.504 35.8032 38.301 36.66C39.2843 37.7779 39.9467 39.1411 40.218 40.605C40.3344 41.0886 40.3968 41.5836 40.404 42.081L40.416 42.807Z" fill="#F39440"/>
</g>
<defs>
<clipPath id="clip0_230_3">
<rect width="62.778" height="60" fill="white"/>
</clipPath>
</defs>
</svg>
