<svg width="290" height="60" viewBox="0 0 290 60" fill="none" xmlns="http://www.w3.org/2000/svg">
<g clip-path="url(#clip0_230_5)">
<path fill-rule="evenodd" clip-rule="evenodd" d="M24.96 38.6397L21.8801 35.5848C20.7097 36.6545 19.5259 37.5013 18.3287 38.1244C17.1341 38.7484 15.7034 39.0587 14.0382 39.0587C12.7403 39.0587 11.5369 38.8099 10.4324 38.3143C9.3492 37.8341 8.37434 37.1397 7.56645 36.2729C6.75031 35.3931 6.11435 34.3619 5.69445 33.2376C5.25141 32.0806 5.03122 30.8379 5.03122 29.515C5.03122 28.193 5.25141 26.9584 5.69445 25.8129C6.11526 24.7011 6.75142 23.6832 7.56645 22.8177C8.37805 21.9597 9.35229 21.2719 10.4324 20.7942C11.5369 20.2985 12.7403 20.0498 14.0382 20.0498C15.5991 20.0498 16.9906 20.3547 18.2119 20.9671C19.4745 21.6043 20.643 22.413 21.684 23.3704L24.7657 19.8965C24.1179 19.2876 23.4267 18.7266 22.6976 18.2179C21.9513 17.6995 21.1545 17.2581 20.3192 16.9004C19.409 16.516 18.461 16.228 17.4907 16.0411C16.4647 15.8387 15.3263 15.7371 14.0783 15.7371C11.9995 15.7371 10.1017 16.0999 8.38389 16.8246C6.66878 17.5494 5.18722 18.5415 3.93922 19.802C2.68815 21.0648 1.69983 22.563 1.03138 24.2101C0.344091 25.8905 0 27.684 0 29.5935C0 31.5261 0.350331 33.3321 1.05189 35.0134C1.75522 36.6919 2.72242 38.1503 3.95794 39.384C5.19168 40.6187 6.65541 41.5912 8.34645 42.3035C10.0348 43.0148 11.8827 43.3714 13.884 43.3714C15.1587 43.3714 16.3229 43.2635 17.3739 43.0478C18.3774 42.8478 19.3532 42.5276 20.28 42.094C21.1523 41.6807 21.9815 41.182 22.7555 40.6053C23.5444 40.0134 24.2819 39.3558 24.96 38.6397ZM45.9077 15.7371H41.4514L29.4171 42.48H34.3423L37.1547 36.0688H50.0894L52.8617 42.48H57.9429L45.9077 15.7371ZM48.1371 31.7828H39.2229L43.6613 21.0857L48.1371 31.7828ZM64.1829 42.48H82.9029V38.2385H68.845V15.7371H64.1829V42.48ZM112.035 23.3018V42.48H116.777V15.7371H111.686L103.406 28.3829L95.1252 15.7371H90.0343V42.48H94.7767V23.3766L103.288 35.9083H103.444L112.035 23.3018ZM138.596 12.1714L121.234 47.8285H125.266L142.629 12.1714H138.596ZM150.949 23.1458C150.949 22.2499 151.328 21.4877 152.087 20.861C152.844 20.2344 153.905 19.9224 155.27 19.9224C156.482 19.9224 157.683 20.1586 158.871 20.631C160.059 21.1035 161.259 21.7899 162.471 22.684L164.973 19.1147C163.609 18.0147 162.149 17.1776 160.594 16.6009C159.041 16.0259 157.291 15.7371 155.347 15.7371C154.032 15.7371 152.819 15.9243 151.714 16.2942C150.602 16.666 149.655 17.1946 148.864 17.8872C148.079 18.5752 147.445 19.418 147.001 20.3627C146.553 21.321 146.325 22.3907 146.325 23.5665C146.325 24.8208 146.521 25.8842 146.913 26.7516C147.303 27.6173 147.889 28.3803 148.624 28.9802C149.37 29.5935 150.3 30.1051 151.399 30.5134C152.505 30.9235 153.76 31.2943 155.183 31.6259C156.421 31.9344 157.425 32.2267 158.201 32.5084C158.972 32.791 159.579 33.0923 160.027 33.4115C160.47 33.7306 160.772 34.0836 160.937 34.4678C161.102 34.852 161.184 35.2861 161.184 35.772C161.184 36.8221 160.761 37.6529 159.912 38.2671C159.067 38.8804 157.925 39.1888 156.483 39.1888C154.816 39.1888 153.325 38.8875 152.012 38.2858C150.696 37.685 149.395 36.8221 148.106 35.6962L145.303 39.072C146.895 40.5313 148.623 41.6126 150.494 42.315C152.371 43.0211 154.362 43.379 156.368 43.3714C157.759 43.3714 159.034 43.1913 160.197 42.833C161.354 42.4755 162.352 41.9505 163.172 41.2605C163.998 40.5697 164.66 39.7045 165.111 38.727C165.572 37.7286 165.806 36.5921 165.806 35.312C165.806 34.1861 165.624 33.2082 165.257 32.3747C164.883 31.537 164.331 30.7908 163.64 30.1881C162.933 29.5605 162.035 29.0292 160.962 28.5951C159.888 28.1592 158.65 27.7625 157.26 27.4041C155.989 27.0984 154.948 26.8033 154.119 26.5216C153.299 26.2417 152.654 25.9333 152.18 25.6016C151.713 25.2674 151.391 24.9099 151.214 24.5257C151.038 24.1433 150.948 23.6815 150.948 23.1458H150.949ZM184.73 20.0926H193.44V15.7371H171.154V20.0926H179.864V42.48H184.729V20.0926H184.73ZM225.531 29.515C225.531 27.6341 225.181 25.8512 224.479 24.1736C223.803 22.5321 222.81 21.0399 221.557 19.7824C220.309 18.5353 218.815 17.5494 217.075 16.8246C215.335 16.0999 213.412 15.7371 211.308 15.7371C209.202 15.7371 207.281 16.1062 205.539 16.8443C203.799 17.5815 202.292 18.5808 201.02 19.8412C199.748 21.0972 198.74 22.5959 198.058 24.2485C197.356 25.927 197.006 27.7099 197.006 29.5935C197.006 31.4771 197.356 33.2572 198.058 34.9349C198.733 36.5769 199.726 38.0692 200.98 39.3261C202.226 40.5732 203.722 41.5591 205.462 42.2838C207.202 43.0086 209.126 43.3714 211.229 43.3714C213.333 43.3714 215.256 43.0023 216.998 42.2642C218.738 41.527 220.244 40.5277 221.517 39.2673C222.789 38.011 223.796 36.5123 224.479 34.86C225.181 33.1815 225.531 31.3986 225.531 29.515ZM220.183 29.1486C220.183 30.4858 219.964 31.7552 219.523 32.9488C219.086 34.1433 218.478 35.1792 217.699 36.0599C216.92 36.9413 215.966 37.6515 214.898 38.1458C213.807 38.6584 212.61 38.9142 211.307 38.9142C210.002 38.9142 208.798 38.6513 207.695 38.1262C206.613 37.6183 205.647 36.8948 204.855 36.0002C204.066 35.1078 203.452 34.064 203.013 32.8713C202.569 31.6528 202.346 30.3651 202.354 29.0684C202.354 27.7313 202.574 26.4637 203.014 25.2683C203.451 24.0737 204.06 23.0379 204.838 22.159C205.617 21.2764 206.571 20.5655 207.64 20.0712C208.73 19.5587 209.927 19.3028 211.23 19.3028C212.535 19.3028 213.739 19.5658 214.841 20.0908C215.922 20.5984 216.889 21.322 217.681 22.2169C218.471 23.1092 219.086 24.1531 219.524 25.3458C219.964 26.5421 220.183 27.8088 220.183 29.1486ZM256.731 42.48L249.357 32.356C250.281 32.1179 251.167 31.7518 251.99 31.2685C252.764 30.813 253.456 30.2312 254.038 29.5471C254.621 28.8557 255.078 28.0669 255.386 27.2169C255.711 26.3398 255.874 25.3378 255.874 24.2199C255.874 22.9193 255.639 21.7418 255.17 20.6845C254.718 19.6482 254.03 18.7323 253.16 18.0102C252.289 17.2855 251.224 16.7239 249.963 16.329C248.701 15.9332 247.29 15.7371 245.729 15.7371H233.554V42.48H238.315V33.1574H244.343L251.074 42.48H256.731ZM250.491 24.6309C250.491 25.9974 249.992 27.0886 248.987 27.8935C247.991 28.7047 246.639 29.1085 244.943 29.1085H238.011V20.1942H244.904C246.678 20.1942 248.053 20.566 249.026 21.313C250.007 22.0582 250.491 23.1672 250.491 24.6309ZM284.973 23.3018V42.48H289.714V15.7371H284.624L276.345 28.3829L268.064 15.7371H262.971V42.48H267.715V23.3766L276.226 35.9083H276.382L284.973 23.3018Z" fill="#3A133C"/>
</g>
<defs>
<clipPath id="clip0_230_5">
<rect width="289.714" height="60" fill="white"/>
</clipPath>
</defs>
</svg>
