<svg width="90" height="60" viewBox="0 0 90 60" fill="none" xmlns="http://www.w3.org/2000/svg">
<mask id="mask0_230_7" style="mask-type:luminance" maskUnits="userSpaceOnUse" x="1" y="6" width="87" height="45">
<path d="M87.2798 6H1.77539V50.5714H87.2798V6Z" fill="white"/>
</mask>
<g mask="url(#mask0_230_7)">
<path d="M71.4841 5.78418H65.0526C64.9703 5.78432 64.8889 5.80242 64.8143 5.83722C64.7397 5.87201 64.6737 5.92266 64.621 5.98561L41.0603 33.9851V19.7235C41.0603 19.6487 41.0306 19.5769 40.9777 19.5241C40.9248 19.4712 40.8529 19.4415 40.7781 19.4415H36.2579C36.1756 19.4416 36.0944 19.4597 36.0199 19.4945C35.9454 19.5293 35.8793 19.5799 35.8265 19.6429L31.8466 24.3767C31.82 24.4089 31.8029 24.4482 31.7977 24.4897C31.7924 24.5312 31.799 24.5734 31.8167 24.6113C31.8344 24.6493 31.8626 24.6815 31.8978 24.7041C31.9331 24.7267 31.974 24.7389 32.016 24.7392H35.7135C35.7881 24.7403 35.8593 24.7703 35.912 24.823C35.9647 24.8756 35.9948 24.9468 35.9958 25.0213V49.8018C35.9958 49.8766 36.0255 49.9483 36.0785 50.0012C36.1314 50.0541 36.2032 50.0838 36.2781 50.0838H40.7781C40.8529 50.0838 40.9248 50.0541 40.9777 50.0012C41.0306 49.9483 41.0603 49.8766 41.0603 49.8018V42.5219L44.6491 38.2596L54.4232 49.8824C54.4769 49.9447 54.5428 49.9949 54.6174 50.0296C54.6916 50.0644 54.7725 50.0829 54.8548 50.0838H61.3063C61.3482 50.0825 61.3891 50.0696 61.4241 50.0465C61.4591 50.0233 61.4869 49.9909 61.5046 49.9528C61.5223 49.9148 61.5287 49.8726 61.5237 49.8309C61.5187 49.7893 61.5019 49.7499 61.476 49.7172L48.2501 34.0053L71.6533 6.14676C71.6801 6.11446 71.6969 6.07527 71.7024 6.03373C71.7074 5.99219 71.701 5.95 71.6833 5.91205C71.6655 5.8741 71.6373 5.84195 71.6019 5.81932C71.5668 5.79669 71.5259 5.7845 71.4841 5.78418Z" fill="#3A133C"/>
<path d="M27.0425 23.8259C24.5304 20.9172 20.9941 19.4427 16.4941 19.4427C14.5139 19.4107 12.5505 19.8096 10.7401 20.6117C8.92977 21.4139 7.31579 22.6 6.01019 24.0878C3.25922 27.0342 1.74639 30.924 1.78437 34.9532C1.74315 37.0058 2.11125 39.046 2.86723 40.9551C3.6232 42.8641 4.75192 44.6036 6.18761 46.0724C7.59354 47.5335 9.28607 48.6892 11.1593 49.4669C13.0327 50.2447 15.0464 50.6279 17.0747 50.5926C21.4135 50.5926 26.3208 47.9095 29.1958 43.9292C29.235 43.8799 29.2564 43.8189 29.2564 43.7559C29.2564 43.693 29.235 43.6319 29.1958 43.5827L27.3288 41.3588C27.1984 41.203 27.0357 41.0771 26.8521 40.9899C26.6684 40.9026 26.4681 40.856 26.2647 40.8534C26.0614 40.8507 25.8599 40.892 25.674 40.9743C25.4881 41.0567 25.3222 41.1782 25.1877 41.3306C23.1312 43.7479 20.1474 45.6413 17.0304 45.6413C15.7866 45.6774 14.5485 45.4614 13.3905 45.0065C12.2325 44.5516 11.1786 43.8672 10.2925 42.9945C8.62 41.394 7.56984 39.2527 7.32875 36.9514H30.4861C30.561 36.9514 30.6327 36.9217 30.6857 36.8688C30.7386 36.816 30.7684 36.7442 30.7684 36.6694V34.9008C30.7684 30.3605 29.5506 26.7346 27.0425 23.8259ZM7.45373 32.125C7.87466 30.087 8.92541 28.2326 10.4578 26.8233C11.2494 26.0274 12.1923 25.3975 13.231 24.9706C14.2696 24.5438 15.3831 24.3285 16.5062 24.3376C21.2118 24.3376 24.4216 27.2342 25.1998 32.125H7.45373Z" fill="#3A133C"/>
<path d="M86.3853 25.7779C84.6234 21.7493 80.2727 19.4529 74.4461 19.4529C69.0789 19.4529 65.6191 21.9426 62.8047 25.79C62.7656 25.8402 62.7447 25.9018 62.7447 25.9653C62.7447 26.0287 62.7656 26.0904 62.8047 26.1406L64.6999 28.3724C64.8323 28.5293 64.9974 28.6554 65.1839 28.7419C65.3703 28.8283 65.5732 28.8732 65.7788 28.8732C65.9839 28.8732 66.1867 28.8283 66.3732 28.7419C66.5597 28.6554 66.7248 28.5293 66.8571 28.3724C68.8328 26.0801 71.3734 24.3961 74.3369 24.3961C77.1595 24.3961 81.9177 25.2301 81.9177 30.842V32.1312H70.8331C65.8452 32.1312 61.6313 36.2848 61.6313 41.1394V41.4617C61.6018 42.7002 61.8424 43.9304 62.3368 45.0665C62.8311 46.2027 63.5675 47.2175 64.4944 48.0406C66.4137 49.7246 68.9297 50.5787 71.946 50.5787C75.2402 50.5787 79.3612 49.5554 81.9659 46.7917V49.8092C81.9673 49.8837 81.9973 49.9548 82.0501 50.0074C82.1028 50.0601 82.1738 50.0901 82.2484 50.0912H87.0184C87.0934 50.0912 87.1653 50.0615 87.2181 50.0086C87.2708 49.9557 87.3008 49.884 87.3008 49.8092V30.7655C87.3368 29.0582 87.0252 27.3614 86.3853 25.7779ZM81.9136 37.288C81.9136 40.1081 80.4218 42.1748 79.1716 43.4237C77.7485 44.8418 75.4539 45.6234 72.7201 45.6234C69.7683 45.6234 67.075 44.3744 67.075 41.4416C67.075 39.0848 68.9943 36.9133 71.3534 36.9133H81.9136V37.288Z" fill="#3A133C"/>
</g>
</svg>
