<svg width="345" height="60" viewBox="0 0 345 60" fill="none" xmlns="http://www.w3.org/2000/svg">
<g clip-path="url(#clip0_230_15)">
<mask id="mask0_230_15" style="mask-type:luminance" maskUnits="userSpaceOnUse" x="-1" y="9" width="347" height="42">
<path d="M345.274 9.85718H-0.000976562V50.5715H345.274V9.85718Z" fill="white"/>
</mask>
<g mask="url(#mask0_230_15)">
<path d="M317.599 25.4216L298.504 12.6838L289.942 18.3955L309.037 31.1332L289.942 43.871L298.504 49.5826L317.599 36.8449L336.711 49.5826L345.274 43.871L326.179 31.1332L345.274 18.3955L336.711 12.6838L317.599 25.4216Z" fill="#42FF6D"/>
<path d="M231.525 44.3478C230.357 43.7197 229.782 42.8589 229.782 41.7654C229.782 40.7417 230.305 39.9274 231.351 39.3225C232.397 38.7176 233.845 38.3803 235.658 38.2989C239.076 38.1476 241.727 37.8684 243.628 37.4497C245.528 37.0309 246.923 36.4493 247.795 35.6815C248.667 34.9254 249.26 33.9133 249.539 32.6687H249.958V37.1589C249.958 38.5664 249.347 39.8925 248.127 41.1372C246.906 42.3935 245.267 43.394 243.226 44.1501C241.186 44.9062 238.972 45.2901 236.582 45.2901C234.368 45.2901 232.676 44.976 231.508 44.3478M221.917 36.1817C218.953 37.694 217.488 39.7878 217.488 42.4401C217.488 45.0923 218.865 47.1164 221.621 48.5007C224.376 49.885 227.968 50.5829 232.415 50.5829C237.123 50.5829 241.029 49.7105 244.098 47.9656C247.167 46.2207 248.981 43.7429 249.556 40.5207H249.975L250.306 49.6756H261.903V30.9121C261.903 27.5387 260.141 24.7817 256.619 22.6413C253.096 20.5009 247.778 19.4307 240.68 19.4307C235.85 19.4307 231.752 20.0007 228.404 21.1407C225.056 22.2807 222.51 23.7929 220.784 25.6891C219.057 27.5852 218.098 29.6907 217.924 32.0056H229.939C230.218 30.028 231.281 28.4576 233.095 27.2827C234.908 26.1078 237.472 25.5146 240.768 25.5146C244.063 25.5146 246.278 25.945 247.76 26.8174C249.243 27.6899 249.975 28.7135 249.975 29.8884C249.975 31.3658 248.894 32.4244 246.732 33.0758C244.569 33.7156 240.768 34.018 235.31 33.9831C229.346 33.9482 224.881 34.6811 221.917 36.205M197.87 31.5984H197.347L197.015 20.338H185.245V49.6872H197.347V37.5776C197.521 34.8091 198.253 32.6803 199.561 31.1797C200.869 29.6791 202.857 28.5972 205.525 27.9342C208.193 27.2711 211.925 26.8407 216.703 26.6546V19.8378C212.378 19.8378 208.995 20.2101 206.519 20.9778C204.043 21.734 202.16 22.9554 200.852 24.6189C199.544 26.2823 198.55 28.6205 197.87 31.6101M166.15 20.3497V35.7048C166.15 38.357 165.173 40.4509 163.22 41.9631C161.267 43.4754 158.669 44.2315 155.425 44.2315C152.182 44.2315 149.706 43.6033 147.962 42.3587C146.235 41.1023 145.364 39.2644 145.364 36.8448V20.3497H133.261V39.2876C133.261 41.6374 133.976 43.6615 135.441 45.3715C136.889 47.0815 138.859 48.3727 141.318 49.2684C143.794 50.1642 146.497 50.6062 149.461 50.6062C152.077 50.6062 154.553 50.2107 156.873 49.408C159.192 48.617 161.145 47.477 162.714 45.9997C164.284 44.5223 165.26 42.7774 165.644 40.765H166.15L166.481 49.6989H178.339V20.3148H166.132L166.15 20.3497ZM128.553 25.3517V20.3497H115.858L115.527 12.6721H104.018V20.3497H97.1122V25.3517H104.018V41.4978C104.018 44.7201 105.203 46.9419 107.592 48.175C109.982 49.408 113.853 50.0246 119.189 50.0246C120.776 50.0595 123.88 49.9664 128.483 49.7454V43.5452C126.373 43.6615 124.385 43.7197 122.52 43.7197C119.956 43.7197 118.265 43.4754 117.41 43.0101C116.556 42.5331 116.137 41.5793 116.137 40.1368V25.3633H128.588L128.553 25.3517ZM64.0494 44.3711C62.8811 43.7429 62.3056 42.8821 62.3056 41.7887C62.3056 40.765 62.8288 39.9507 63.875 39.3458C64.9213 38.7409 66.3687 38.4035 68.1823 38.3221C71.6001 38.1709 74.2507 37.8917 76.1515 37.4729C78.0523 37.0542 79.4473 36.4725 80.3192 35.7048C81.1911 34.9486 81.784 33.9366 82.063 32.6919H82.4816V37.1821C82.4816 38.5897 81.8712 39.9158 80.6505 41.1605C79.4299 42.4168 77.7907 43.4172 75.7504 44.1733C73.7102 44.9295 71.4955 45.3133 69.1065 45.3133C66.8918 45.3133 65.2003 44.9993 64.032 44.3711M54.441 36.205C51.4765 37.7172 50.0117 39.8111 50.0117 42.4633C50.0117 45.1156 51.3893 47.1397 54.1446 48.524C56.8998 49.9082 60.492 50.6062 64.9388 50.6062C69.6471 50.6062 73.5532 49.7338 76.6223 47.9889C79.6914 46.244 81.505 43.7662 82.0805 40.544H82.499L82.8303 49.6989H94.4267V30.9354C94.4267 27.5619 92.6654 24.805 89.1429 22.6646C85.6204 20.5242 80.3018 19.454 73.2045 19.454C68.3741 19.454 64.2761 20.024 60.928 21.164C57.5799 22.304 55.0339 23.8162 53.2901 25.7123C51.5637 27.6084 50.6046 29.714 50.4302 32.0289H62.4626C62.7416 30.0513 63.8053 28.4809 65.6189 27.306C67.4324 26.1311 69.9958 25.5378 73.2916 25.5378C76.5875 25.5378 78.8021 25.9682 80.2843 26.8407C81.7666 27.7131 82.499 28.7368 82.499 29.9117C82.499 31.3891 81.4178 32.4476 79.2555 33.0991C77.0932 33.7389 73.2917 34.0413 67.8335 34.0064C61.8697 33.9715 57.4055 34.7044 54.441 36.2282" fill="#04464F"/>
<path d="M280.754 9.85718H268.652V49.6641H280.754V9.85718Z" fill="#04464F"/>
<path d="M36.9505 20.7452C34.4743 19.8495 31.7713 19.4075 28.8069 19.4075C24.7612 19.4075 21.2387 20.3032 18.2045 22.083C15.1702 23.8628 13.3392 26.2591 12.7114 29.2487H12.2057L11.7698 20.3148H-0.000976562V49.664H12.1883V34.3089C12.1883 31.6218 13.1474 29.5279 15.0481 28.0273C16.9489 26.5267 19.5821 25.7822 22.9302 25.7822C26.0516 25.7822 28.493 26.422 30.2717 27.7132C32.0329 29.0044 32.9223 30.8191 32.9223 33.1689V49.664H45.1115V30.7144C45.1115 28.3646 44.3617 26.3289 42.8969 24.6305C41.4146 22.9205 39.4441 21.6293 36.9679 20.7336" fill="#04464F"/>
</g>
</g>
<defs>
<clipPath id="clip0_230_15">
<rect width="345" height="60" fill="white"/>
</clipPath>
</defs>
</svg>
